<mxfile host="65bd71144e">
    <diagram id="nRV0QZUFc2kxazQBU8Fh" name="Page-1">
        <mxGraphModel dx="615" dy="466" grid="1" gridSize="10" guides="1" tooltips="1" connect="1" arrows="1" fold="1" page="1" pageScale="1" pageWidth="850" pageHeight="1100" math="0" shadow="0">
            <root>
                <mxCell id="0"/>
                <mxCell id="1" parent="0"/>
                <mxCell id="2" value="" style="rounded=0;whiteSpace=wrap;html=1;" vertex="1" parent="1">
                    <mxGeometry x="140" y="360" width="350" height="60" as="geometry"/>
                </mxCell>
                <mxCell id="3" value="Wenn &quot;/&quot; eingegeben wird" style="text;html=1;align=center;verticalAlign=middle;whiteSpace=wrap;rounded=0;" vertex="1" parent="1">
                    <mxGeometry x="120" y="70" width="150" height="30" as="geometry"/>
                </mxCell>
                <mxCell id="4" value="Popup DropDown anzeigen" style="text;html=1;align=center;verticalAlign=middle;whiteSpace=wrap;rounded=0;" vertex="1" parent="1">
                    <mxGeometry x="112.5" y="130" width="165" height="30" as="geometry"/>
                </mxCell>
                <mxCell id="5" value="Wenn Eingabe getätigt wird" style="text;html=1;align=center;verticalAlign=middle;whiteSpace=wrap;rounded=0;" vertex="1" parent="1">
                    <mxGeometry x="130" y="180" width="180" height="30" as="geometry"/>
                </mxCell>
                <mxCell id="6" value="Wenn &quot;/&quot; gelöscht wird und dieser mit der Tastatur zuvor eingegeben wurde, sollte sich dieser DropDown nicht mehr blicken erst sobald das &quot;/&quot; wieder mit der Tastatur eingegeben wird. Wenn es einfach nur reinkopiert wird soll es dieses Verhalten zwar registrieren, aber bewusst um es vollständig zu ignorieren." style="text;html=1;align=center;verticalAlign=middle;whiteSpace=wrap;rounded=0;" vertex="1" parent="1">
                    <mxGeometry x="420" y="70" width="310" height="30" as="geometry"/>
                </mxCell>
                <mxCell id="7" value="Wenn &quot;/&quot; kopiert wird, dann soll dies keinen Trigger auslösen" style="text;html=1;align=center;verticalAlign=middle;whiteSpace=wrap;rounded=0;" vertex="1" parent="1">
                    <mxGeometry x="430" y="200" width="280" height="30" as="geometry"/>
                </mxCell>
                <mxCell id="8" value="Nur wenn &quot;/&quot; mit der Tastatur eingegeben wird, soll die Aktion valide getriggert werden" style="text;html=1;align=center;verticalAlign=middle;whiteSpace=wrap;rounded=0;" vertex="1" parent="1">
                    <mxGeometry x="425" y="270" width="260" height="30" as="geometry"/>
                </mxCell>
                <mxCell id="10" value="Wenn nach der Eingabe mit der Tastatur &quot;/&quot; noch etwas eingegeben wird und dadurch die Suche getriggert wird, soll die Eingabe auch wieder gelöscht werden können sofern man etwas falsches eingegeben hat." style="text;html=1;align=center;verticalAlign=middle;whiteSpace=wrap;rounded=0;" vertex="1" parent="1">
                    <mxGeometry x="410" y="460" width="290" height="30" as="geometry"/>
                </mxCell>
            </root>
        </mxGraphModel>
    </diagram>
</mxfile>